<svg xmlns="http://www.w3.org/2000/svg" width="1440" height="900" viewBox="0 0 1440 900"><defs><linearGradient id="pp" x1="0" y1="0" x2=".3" y2="1"><stop offset="0" stop-color="#FDFAF3"/><stop offset=".5" stop-color="#F8F4EA"/><stop offset="1" stop-color="#F1EBDD"/></linearGradient><radialGradient id="ag" cx=".5" cy=".5" r=".72"><stop offset=".56" stop-color="#EFE8D6" stop-opacity="0"/><stop offset="1" stop-color="#DCCFAF" stop-opacity=".5"/></radialGradient><pattern id="fb" width="150" height="150" patternUnits="userSpaceOnUse"><path d="M0 34Q38 26 75 34T150 32M0 96Q38 88 75 96T150 94" fill="none" stroke="#E3DCC6" stroke-width=".8" opacity=".55"/></pattern><radialGradient id="pnk" cx=".5" cy=".5" r=".5"><stop offset="0" stop-color="#DFC9BC" stop-opacity=".2"/><stop offset="1" stop-color="#DFC9BC" stop-opacity="0"/></radialGradient><filter id="b10" x="-45%" y="-45%" width="190%" height="190%"><feGaussianBlur stdDeviation="10"/></filter><filter id="b6" x="-45%" y="-45%" width="190%" height="190%"><feGaussianBlur stdDeviation="6"/></filter><filter id="b24" x="-45%" y="-45%" width="190%" height="190%"><feGaussianBlur stdDeviation="24"/></filter></defs><rect width="1440" height="900" fill="url(#pp)"/><rect width="1440" height="900" fill="url(#fb)" opacity=".5"/><rect width="1440" height="900" fill="url(#ag)"/><ellipse cx="190" cy="770" rx="230" ry="104" fill="url(#pnk)"/><ellipse cx="1240" cy="176" rx="196" ry="92" fill="url(#pnk)" opacity=".8"/><g><g transform="translate(140,150) rotate(-2) scale(1.35)" opacity="1"><path d="M0,0 C-10,-6 -10,-22 2,-26 C1,-40 18,-46 28,-34 C33,-52 58,-53 64,-34 C78,-40 92,-28 88,-13 C98,-8 95,0 84,0 Z" fill="#C9A96B" opacity=".22" filter="url(#b10)"/><path d="M0,0 C-10,-6 -10,-22 2,-26 C1,-40 18,-46 28,-34 C33,-52 58,-53 64,-34 C78,-40 92,-28 88,-13 C98,-8 95,0 84,0 Z" fill="#AEBBAB" opacity=".34"/><path d="M0,0 C-10,-6 -10,-22 2,-26 C1,-40 18,-46 28,-34 C33,-52 58,-53 64,-34 C78,-40 92,-28 88,-13 C98,-8 95,0 84,0 Z" fill="none" stroke="#B99A55" stroke-width="2.6" opacity=".9"/><path d="M26,-16 C21,-25 30,-31 36,-24 M50,-20 C46,-28 55,-33 60,-26" fill="none" stroke="#B99A55" stroke-width="1.8" opacity=".75"/><path d="M2,0 L84,0" stroke="#B99A55" stroke-width="2" opacity=".55"/><path d="M2,0 C-16,10 -38,8 -54,-4 C-65,-12 -78,-12 -88,-5" fill="none" stroke="#B99A55" stroke-width="3" stroke-linecap="round" opacity=".8"/><path d="M8,5 C-10,18 -34,17 -52,7" fill="none" stroke="#B99A55" stroke-width="1.8" stroke-linecap="round" opacity=".55"/></g><g transform="translate(315.5,195.9) rotate(6) scale(0.8370000000000001)" opacity="0.80"><path d="M0,0 C-10,-6 -10,-22 2,-26 C1,-40 18,-46 28,-34 C33,-52 58,-53 64,-34 C78,-40 92,-28 88,-13 C98,-8 95,0 84,0 Z" fill="#C9A96B" opacity=".22" filter="url(#b10)"/><path d="M0,0 C-10,-6 -10,-22 2,-26 C1,-40 18,-46 28,-34 C33,-52 58,-53 64,-34 C78,-40 92,-28 88,-13 C98,-8 95,0 84,0 Z" fill="#AEBBAB" opacity=".34"/><path d="M0,0 C-10,-6 -10,-22 2,-26 C1,-40 18,-46 28,-34 C33,-52 58,-53 64,-34 C78,-40 92,-28 88,-13 C98,-8 95,0 84,0 Z" fill="none" stroke="#B99A55" stroke-width="2.6" opacity=".9"/><path d="M26,-16 C21,-25 30,-31 36,-24 M50,-20 C46,-28 55,-33 60,-26" fill="none" stroke="#B99A55" stroke-width="1.8" opacity=".75"/><path d="M2,0 L84,0" stroke="#B99A55" stroke-width="2" opacity=".55"/><path d="M2,0 C-16,10 -38,8 -54,-4 C-65,-12 -78,-12 -88,-5" fill="none" stroke="#B99A55" stroke-width="3" stroke-linecap="round" opacity=".8"/><path d="M8,5 C-10,18 -34,17 -52,7" fill="none" stroke="#B99A55" stroke-width="1.8" stroke-linecap="round" opacity=".55"/></g><g transform="translate(5.0,185.1) rotate(-12) scale(0.7425000000000002)" opacity="0.70"><path d="M0,0 C-10,-6 -10,-22 2,-26 C1,-40 18,-46 28,-34 C33,-52 58,-53 64,-34 C78,-40 92,-28 88,-13 C98,-8 95,0 84,0 Z" fill="#C9A96B" opacity=".22" filter="url(#b10)"/><path d="M0,0 C-10,-6 -10,-22 2,-26 C1,-40 18,-46 28,-34 C33,-52 58,-53 64,-34 C78,-40 92,-28 88,-13 C98,-8 95,0 84,0 Z" fill="#AEBBAB" opacity=".34"/><path d="M0,0 C-10,-6 -10,-22 2,-26 C1,-40 18,-46 28,-34 C33,-52 58,-53 64,-34 C78,-40 92,-28 88,-13 C98,-8 95,0 84,0 Z" fill="none" stroke="#B99A55" stroke-width="2.6" opacity=".9"/><path d="M26,-16 C21,-25 30,-31 36,-24 M50,-20 C46,-28 55,-33 60,-26" fill="none" stroke="#B99A55" stroke-width="1.8" opacity=".75"/><path d="M2,0 L84,0" stroke="#B99A55" stroke-width="2" opacity=".55"/><path d="M2,0 C-16,10 -38,8 -54,-4 C-65,-12 -78,-12 -88,-5" fill="none" stroke="#B99A55" stroke-width="3" stroke-linecap="round" opacity=".8"/><path d="M8,5 C-10,18 -34,17 -52,7" fill="none" stroke="#B99A55" stroke-width="1.8" stroke-linecap="round" opacity=".55"/></g></g><g transform="translate(560,120) rotate(6) scale(0.9)" opacity=".7"><path d="M0,0 C-10,-6 -10,-22 2,-26 C1,-40 18,-46 28,-34 C33,-52 58,-53 64,-34 C78,-40 92,-28 88,-13 C98,-8 95,0 84,0 Z" fill="#C9A96B" opacity=".22" filter="url(#b10)"/><path d="M0,0 C-10,-6 -10,-22 2,-26 C1,-40 18,-46 28,-34 C33,-52 58,-53 64,-34 C78,-40 92,-28 88,-13 C98,-8 95,0 84,0 Z" fill="#AEBBAB" opacity=".34"/><path d="M0,0 C-10,-6 -10,-22 2,-26 C1,-40 18,-46 28,-34 C33,-52 58,-53 64,-34 C78,-40 92,-28 88,-13 C98,-8 95,0 84,0 Z" fill="none" stroke="#B99A55" stroke-width="2.6" opacity=".9"/><path d="M26,-16 C21,-25 30,-31 36,-24 M50,-20 C46,-28 55,-33 60,-26" fill="none" stroke="#B99A55" stroke-width="1.8" opacity=".75"/><path d="M2,0 L84,0" stroke="#B99A55" stroke-width="2" opacity=".55"/><path d="M2,0 C-16,10 -38,8 -54,-4 C-65,-12 -78,-12 -88,-5" fill="none" stroke="#B99A55" stroke-width="3" stroke-linecap="round" opacity=".8"/><path d="M8,5 C-10,18 -34,17 -52,7" fill="none" stroke="#B99A55" stroke-width="1.8" stroke-linecap="round" opacity=".55"/></g><g transform="translate(720,170) rotate(-8) scale(0.7)" opacity=".55"><path d="M0,0 C-10,-6 -10,-22 2,-26 C1,-40 18,-46 28,-34 C33,-52 58,-53 64,-34 C78,-40 92,-28 88,-13 C98,-8 95,0 84,0 Z" fill="#C9A96B" opacity=".22" filter="url(#b10)"/><path d="M0,0 C-10,-6 -10,-22 2,-26 C1,-40 18,-46 28,-34 C33,-52 58,-53 64,-34 C78,-40 92,-28 88,-13 C98,-8 95,0 84,0 Z" fill="#AEBBAB" opacity=".34"/><path d="M0,0 C-10,-6 -10,-22 2,-26 C1,-40 18,-46 28,-34 C33,-52 58,-53 64,-34 C78,-40 92,-28 88,-13 C98,-8 95,0 84,0 Z" fill="none" stroke="#B99A55" stroke-width="2.6" opacity=".9"/><path d="M26,-16 C21,-25 30,-31 36,-24 M50,-20 C46,-28 55,-33 60,-26" fill="none" stroke="#B99A55" stroke-width="1.8" opacity=".75"/><path d="M2,0 L84,0" stroke="#B99A55" stroke-width="2" opacity=".55"/><path d="M2,0 C-16,10 -38,8 -54,-4 C-65,-12 -78,-12 -88,-5" fill="none" stroke="#B99A55" stroke-width="3" stroke-linecap="round" opacity=".8"/><path d="M8,5 C-10,18 -34,17 -52,7" fill="none" stroke="#B99A55" stroke-width="1.8" stroke-linecap="round" opacity=".55"/></g><g transform="translate(1300,120) rotate(5) scale(1.0)" opacity=".8"><path d="M0,0 C-10,-6 -10,-22 2,-26 C1,-40 18,-46 28,-34 C33,-52 58,-53 64,-34 C78,-40 92,-28 88,-13 C98,-8 95,0 84,0 Z" fill="#C9A96B" opacity=".22" filter="url(#b10)"/><path d="M0,0 C-10,-6 -10,-22 2,-26 C1,-40 18,-46 28,-34 C33,-52 58,-53 64,-34 C78,-40 92,-28 88,-13 C98,-8 95,0 84,0 Z" fill="#AEBBAB" opacity=".34"/><path d="M0,0 C-10,-6 -10,-22 2,-26 C1,-40 18,-46 28,-34 C33,-52 58,-53 64,-34 C78,-40 92,-28 88,-13 C98,-8 95,0 84,0 Z" fill="none" stroke="#B99A55" stroke-width="2.6" opacity=".9"/><path d="M26,-16 C21,-25 30,-31 36,-24 M50,-20 C46,-28 55,-33 60,-26" fill="none" stroke="#B99A55" stroke-width="1.8" opacity=".75"/><path d="M2,0 L84,0" stroke="#B99A55" stroke-width="2" opacity=".55"/><path d="M2,0 C-16,10 -38,8 -54,-4 C-65,-12 -78,-12 -88,-5" fill="none" stroke="#B99A55" stroke-width="3" stroke-linecap="round" opacity=".8"/><path d="M8,5 C-10,18 -34,17 -52,7" fill="none" stroke="#B99A55" stroke-width="1.8" stroke-linecap="round" opacity=".55"/></g><g transform="translate(500,420) rotate(-4) scale(0.8)" opacity=".5"><path d="M0,0 C-10,-6 -10,-22 2,-26 C1,-40 18,-46 28,-34 C33,-52 58,-53 64,-34 C78,-40 92,-28 88,-13 C98,-8 95,0 84,0 Z" fill="#C9A96B" opacity=".22" filter="url(#b10)"/><path d="M0,0 C-10,-6 -10,-22 2,-26 C1,-40 18,-46 28,-34 C33,-52 58,-53 64,-34 C78,-40 92,-28 88,-13 C98,-8 95,0 84,0 Z" fill="#AEBBAB" opacity=".34"/><path d="M0,0 C-10,-6 -10,-22 2,-26 C1,-40 18,-46 28,-34 C33,-52 58,-53 64,-34 C78,-40 92,-28 88,-13 C98,-8 95,0 84,0 Z" fill="none" stroke="#B99A55" stroke-width="2.6" opacity=".9"/><path d="M26,-16 C21,-25 30,-31 36,-24 M50,-20 C46,-28 55,-33 60,-26" fill="none" stroke="#B99A55" stroke-width="1.8" opacity=".75"/><path d="M2,0 L84,0" stroke="#B99A55" stroke-width="2" opacity=".55"/><path d="M2,0 C-16,10 -38,8 -54,-4 C-65,-12 -78,-12 -88,-5" fill="none" stroke="#B99A55" stroke-width="3" stroke-linecap="round" opacity=".8"/><path d="M8,5 C-10,18 -34,17 -52,7" fill="none" stroke="#B99A55" stroke-width="1.8" stroke-linecap="round" opacity=".55"/></g><g transform="translate(980,460) rotate(8) scale(0.75)" opacity=".5"><path d="M0,0 C-10,-6 -10,-22 2,-26 C1,-40 18,-46 28,-34 C33,-52 58,-53 64,-34 C78,-40 92,-28 88,-13 C98,-8 95,0 84,0 Z" fill="#C9A96B" opacity=".22" filter="url(#b10)"/><path d="M0,0 C-10,-6 -10,-22 2,-26 C1,-40 18,-46 28,-34 C33,-52 58,-53 64,-34 C78,-40 92,-28 88,-13 C98,-8 95,0 84,0 Z" fill="#AEBBAB" opacity=".34"/><path d="M0,0 C-10,-6 -10,-22 2,-26 C1,-40 18,-46 28,-34 C33,-52 58,-53 64,-34 C78,-40 92,-28 88,-13 C98,-8 95,0 84,0 Z" fill="none" stroke="#B99A55" stroke-width="2.6" opacity=".9"/><path d="M26,-16 C21,-25 30,-31 36,-24 M50,-20 C46,-28 55,-33 60,-26" fill="none" stroke="#B99A55" stroke-width="1.8" opacity=".75"/><path d="M2,0 L84,0" stroke="#B99A55" stroke-width="2" opacity=".55"/><path d="M2,0 C-16,10 -38,8 -54,-4 C-65,-12 -78,-12 -88,-5" fill="none" stroke="#B99A55" stroke-width="3" stroke-linecap="round" opacity=".8"/><path d="M8,5 C-10,18 -34,17 -52,7" fill="none" stroke="#B99A55" stroke-width="1.8" stroke-linecap="round" opacity=".55"/></g><g><g transform="translate(1080,700) rotate(4) scale(1.3)" opacity="1"><path d="M0,0 C-10,-6 -10,-22 2,-26 C1,-40 18,-46 28,-34 C33,-52 58,-53 64,-34 C78,-40 92,-28 88,-13 C98,-8 95,0 84,0 Z" fill="#C9A96B" opacity=".22" filter="url(#b10)"/><path d="M0,0 C-10,-6 -10,-22 2,-26 C1,-40 18,-46 28,-34 C33,-52 58,-53 64,-34 C78,-40 92,-28 88,-13 C98,-8 95,0 84,0 Z" fill="#AEBBAB" opacity=".34"/><path d="M0,0 C-10,-6 -10,-22 2,-26 C1,-40 18,-46 28,-34 C33,-52 58,-53 64,-34 C78,-40 92,-28 88,-13 C98,-8 95,0 84,0 Z" fill="none" stroke="#B99A55" stroke-width="2.6" opacity=".9"/><path d="M26,-16 C21,-25 30,-31 36,-24 M50,-20 C46,-28 55,-33 60,-26" fill="none" stroke="#B99A55" stroke-width="1.8" opacity=".75"/><path d="M2,0 L84,0" stroke="#B99A55" stroke-width="2" opacity=".55"/><path d="M2,0 C-16,10 -38,8 -54,-4 C-65,-12 -78,-12 -88,-5" fill="none" stroke="#B99A55" stroke-width="3" stroke-linecap="round" opacity=".8"/><path d="M8,5 C-10,18 -34,17 -52,7" fill="none" stroke="#B99A55" stroke-width="1.8" stroke-linecap="round" opacity=".55"/></g><g transform="translate(1249.0,744.2) rotate(12) scale(0.806)" opacity="0.80"><path d="M0,0 C-10,-6 -10,-22 2,-26 C1,-40 18,-46 28,-34 C33,-52 58,-53 64,-34 C78,-40 92,-28 88,-13 C98,-8 95,0 84,0 Z" fill="#C9A96B" opacity=".22" filter="url(#b10)"/><path d="M0,0 C-10,-6 -10,-22 2,-26 C1,-40 18,-46 28,-34 C33,-52 58,-53 64,-34 C78,-40 92,-28 88,-13 C98,-8 95,0 84,0 Z" fill="#AEBBAB" opacity=".34"/><path d="M0,0 C-10,-6 -10,-22 2,-26 C1,-40 18,-46 28,-34 C33,-52 58,-53 64,-34 C78,-40 92,-28 88,-13 C98,-8 95,0 84,0 Z" fill="none" stroke="#B99A55" stroke-width="2.6" opacity=".9"/><path d="M26,-16 C21,-25 30,-31 36,-24 M50,-20 C46,-28 55,-33 60,-26" fill="none" stroke="#B99A55" stroke-width="1.8" opacity=".75"/><path d="M2,0 L84,0" stroke="#B99A55" stroke-width="2" opacity=".55"/><path d="M2,0 C-16,10 -38,8 -54,-4 C-65,-12 -78,-12 -88,-5" fill="none" stroke="#B99A55" stroke-width="3" stroke-linecap="round" opacity=".8"/><path d="M8,5 C-10,18 -34,17 -52,7" fill="none" stroke="#B99A55" stroke-width="1.8" stroke-linecap="round" opacity=".55"/></g><g transform="translate(950.0,733.8) rotate(-6) scale(0.7150000000000001)" opacity="0.70"><path d="M0,0 C-10,-6 -10,-22 2,-26 C1,-40 18,-46 28,-34 C33,-52 58,-53 64,-34 C78,-40 92,-28 88,-13 C98,-8 95,0 84,0 Z" fill="#C9A96B" opacity=".22" filter="url(#b10)"/><path d="M0,0 C-10,-6 -10,-22 2,-26 C1,-40 18,-46 28,-34 C33,-52 58,-53 64,-34 C78,-40 92,-28 88,-13 C98,-8 95,0 84,0 Z" fill="#AEBBAB" opacity=".34"/><path d="M0,0 C-10,-6 -10,-22 2,-26 C1,-40 18,-46 28,-34 C33,-52 58,-53 64,-34 C78,-40 92,-28 88,-13 C98,-8 95,0 84,0 Z" fill="none" stroke="#B99A55" stroke-width="2.6" opacity=".9"/><path d="M26,-16 C21,-25 30,-31 36,-24 M50,-20 C46,-28 55,-33 60,-26" fill="none" stroke="#B99A55" stroke-width="1.8" opacity=".75"/><path d="M2,0 L84,0" stroke="#B99A55" stroke-width="2" opacity=".55"/><path d="M2,0 C-16,10 -38,8 -54,-4 C-65,-12 -78,-12 -88,-5" fill="none" stroke="#B99A55" stroke-width="3" stroke-linecap="round" opacity=".8"/><path d="M8,5 C-10,18 -34,17 -52,7" fill="none" stroke="#B99A55" stroke-width="1.8" stroke-linecap="round" opacity=".55"/></g></g><g transform="translate(700,760) rotate(-6) scale(0.85)" opacity=".7"><path d="M0,0 C-10,-6 -10,-22 2,-26 C1,-40 18,-46 28,-34 C33,-52 58,-53 64,-34 C78,-40 92,-28 88,-13 C98,-8 95,0 84,0 Z" fill="#C9A96B" opacity=".22" filter="url(#b10)"/><path d="M0,0 C-10,-6 -10,-22 2,-26 C1,-40 18,-46 28,-34 C33,-52 58,-53 64,-34 C78,-40 92,-28 88,-13 C98,-8 95,0 84,0 Z" fill="#AEBBAB" opacity=".34"/><path d="M0,0 C-10,-6 -10,-22 2,-26 C1,-40 18,-46 28,-34 C33,-52 58,-53 64,-34 C78,-40 92,-28 88,-13 C98,-8 95,0 84,0 Z" fill="none" stroke="#B99A55" stroke-width="2.6" opacity=".9"/><path d="M26,-16 C21,-25 30,-31 36,-24 M50,-20 C46,-28 55,-33 60,-26" fill="none" stroke="#B99A55" stroke-width="1.8" opacity=".75"/><path d="M2,0 L84,0" stroke="#B99A55" stroke-width="2" opacity=".55"/><path d="M2,0 C-16,10 -38,8 -54,-4 C-65,-12 -78,-12 -88,-5" fill="none" stroke="#B99A55" stroke-width="3" stroke-linecap="round" opacity=".8"/><path d="M8,5 C-10,18 -34,17 -52,7" fill="none" stroke="#B99A55" stroke-width="1.8" stroke-linecap="round" opacity=".55"/></g><g transform="translate(860,810) rotate(10) scale(0.65)" opacity=".55"><path d="M0,0 C-10,-6 -10,-22 2,-26 C1,-40 18,-46 28,-34 C33,-52 58,-53 64,-34 C78,-40 92,-28 88,-13 C98,-8 95,0 84,0 Z" fill="#C9A96B" opacity=".22" filter="url(#b10)"/><path d="M0,0 C-10,-6 -10,-22 2,-26 C1,-40 18,-46 28,-34 C33,-52 58,-53 64,-34 C78,-40 92,-28 88,-13 C98,-8 95,0 84,0 Z" fill="#AEBBAB" opacity=".34"/><path d="M0,0 C-10,-6 -10,-22 2,-26 C1,-40 18,-46 28,-34 C33,-52 58,-53 64,-34 C78,-40 92,-28 88,-13 C98,-8 95,0 84,0 Z" fill="none" stroke="#B99A55" stroke-width="2.6" opacity=".9"/><path d="M26,-16 C21,-25 30,-31 36,-24 M50,-20 C46,-28 55,-33 60,-26" fill="none" stroke="#B99A55" stroke-width="1.8" opacity=".75"/><path d="M2,0 L84,0" stroke="#B99A55" stroke-width="2" opacity=".55"/><path d="M2,0 C-16,10 -38,8 -54,-4 C-65,-12 -78,-12 -88,-5" fill="none" stroke="#B99A55" stroke-width="3" stroke-linecap="round" opacity=".8"/><path d="M8,5 C-10,18 -34,17 -52,7" fill="none" stroke="#B99A55" stroke-width="1.8" stroke-linecap="round" opacity=".55"/></g><g><circle cx="717" cy="794" r="1.3" fill="#D6C08A" opacity="0.80"/><circle cx="1269" cy="707" r="2.2" fill="#C2A86B" opacity="0.88"/><circle cx="652" cy="811" r="2.0" fill="#B99E5E" opacity="0.83"/><circle cx="495" cy="176" r="2.5" fill="#B99E5E" opacity="0.53"/><circle cx="234" cy="119" r="1.4" fill="#C2A86B" opacity="0.67"/><circle cx="1405" cy="708" r="1.8" fill="#D6C08A" opacity="0.74"/><circle cx="176" cy="77" r="2.6" fill="#D6C08A" opacity="0.80"/><circle cx="794" cy="848" r="2.7" fill="#D6C08A" opacity="0.51"/><circle cx="79" cy="180" r="1.7" fill="#D0B677" opacity="0.75"/><circle cx="552" cy="71" r="1.5" fill="#D0B677" opacity="0.58"/><circle cx="323" cy="127" r="1.9" fill="#D6C08A" opacity="0.64"/><circle cx="912" cy="728" r="2.5" fill="#D6C08A" opacity="0.74"/><circle cx="625" cy="727" r="1.5" fill="#D6C08A" opacity="0.66"/><circle cx="757" cy="121" r="1.8" fill="#D6C08A" opacity="0.84"/><circle cx="436" cy="110" r="2.2" fill="#B99E5E" opacity="0.50"/><circle cx="165" cy="113" r="1.5" fill="#D0B677" opacity="0.65"/><circle cx="1168" cy="630" r="1.0" fill="#B99E5E" opacity="0.79"/><circle cx="857" cy="742" r="2.5" fill="#D6C08A" opacity="0.76"/><circle cx="945" cy="741" r="1.5" fill="#D6C08A" opacity="0.65"/><circle cx="851" cy="721" r="1.7" fill="#B99E5E" opacity="0.53"/><circle cx="1362" cy="782" r="2.4" fill="#D6C08A" opacity="0.87"/><circle cx="1114" cy="654" r="2.7" fill="#D6C08A" opacity="0.61"/><circle cx="650" cy="757" r="1.3" fill="#C2A86B" opacity="0.77"/><circle cx="1392" cy="633" r="2.2" fill="#D6C08A" opacity="0.82"/><circle cx="1232" cy="753" r="2.5" fill="#D6C08A" opacity="0.66"/><circle cx="1231" cy="591" r="1.9" fill="#D6C08A" opacity="0.50"/><circle cx="1384" cy="805" r="2.8" fill="#D0B677" opacity="0.87"/><circle cx="1279" cy="753" r="1.8" fill="#B99E5E" opacity="0.58"/><circle cx="510" cy="207" r="1.0" fill="#C2A86B" opacity="0.88"/><circle cx="688" cy="846" r="2.1" fill="#B99E5E" opacity="0.58"/><circle cx="506" cy="205" r="1.7" fill="#D6C08A" opacity="0.61"/><circle cx="957" cy="619" r="1.7" fill="#D0B677" opacity="0.67"/><circle cx="570" cy="103" r="1.8" fill="#D0B677" opacity="0.57"/><circle cx="786" cy="798" r="2.6" fill="#D6C08A" opacity="0.89"/><circle cx="799" cy="154" r="1.1" fill="#D0B677" opacity="0.53"/><circle cx="286" cy="147" r="2.1" fill="#B99E5E" opacity="0.67"/><circle cx="489" cy="217" r="1.7" fill="#C2A86B" opacity="0.64"/><circle cx="640" cy="117" r="2.5" fill="#C2A86B" opacity="0.78"/><circle cx="663" cy="736" r="1.8" fill="#B99E5E" opacity="0.61"/><circle cx="927" cy="792" r="2.4" fill="#D6C08A" opacity="0.78"/><circle cx="377" cy="55" r="1.1" fill="#D6C08A" opacity="0.56"/><circle cx="7" cy="143" r="1.6" fill="#B99E5E" opacity="0.85"/><circle cx="661" cy="192" r="2.1" fill="#B99E5E" opacity="0.81"/><circle cx="1311" cy="686" r="1.5" fill="#C2A86B" opacity="0.56"/><circle cx="110" cy="232" r="2.4" fill="#D6C08A" opacity="0.73"/><circle cx="446" cy="66" r="2.6" fill="#D6C08A" opacity="0.81"/><circle cx="1022" cy="720" r="2.0" fill="#C2A86B" opacity="0.62"/><circle cx="488" cy="72" r="1.4" fill="#B99E5E" opacity="0.62"/><circle cx="734" cy="720" r="1.6" fill="#B99E5E" opacity="0.84"/><circle cx="1309" cy="803" r="1.6" fill="#B99E5E" opacity="0.74"/><circle cx="690" cy="73" r="2.5" fill="#B99E5E" opacity="0.80"/><circle cx="764" cy="836" r="1.3" fill="#D0B677" opacity="0.90"/><circle cx="527" cy="112" r="2.5" fill="#C2A86B" opacity="0.67"/><circle cx="426" cy="59" r="2.7" fill="#B99E5E" opacity="0.52"/><circle cx="985" cy="758" r="1.2" fill="#C2A86B" opacity="0.70"/><circle cx="607" cy="792" r="1.5" fill="#D6C08A" opacity="0.69"/><circle cx="182" cy="65" r="2.3" fill="#D0B677" opacity="0.58"/><circle cx="217" cy="74" r="2.4" fill="#D6C08A" opacity="0.69"/><circle cx="502" cy="180" r="1.2" fill="#C2A86B" opacity="0.59"/><circle cx="687" cy="137" r="1.9" fill="#C2A86B" opacity="0.60"/><circle cx="1289" cy="664" r="1.3" fill="#C2A86B" opacity="0.88"/><circle cx="602" cy="737" r="1.0" fill="#B99E5E" opacity="0.57"/><circle cx="895" cy="707" r="1.3" fill="#B99E5E" opacity="0.55"/><circle cx="1092" cy="743" r="1.9" fill="#D6C08A" opacity="0.68"/><circle cx="175" cy="61" r="1.0" fill="#D0B677" opacity="0.51"/><circle cx="1353" cy="644" r="1.2" fill="#C2A86B" opacity="0.51"/><circle cx="516" cy="125" r="1.4" fill="#C2A86B" opacity="0.76"/><circle cx="621" cy="771" r="2.2" fill="#B99E5E" opacity="0.70"/><circle cx="856" cy="837" r="1.4" fill="#B99E5E" opacity="0.82"/><circle cx="1166" cy="604" r="1.0" fill="#B99E5E" opacity="0.63"/><circle cx="131" cy="97" r="2.1" fill="#D6C08A" opacity="0.68"/><circle cx="768" cy="794" r="1.4" fill="#D0B677" opacity="0.55"/><circle cx="137" cy="198" r="2.6" fill="#D0B677" opacity="0.67"/><circle cx="1155" cy="642" r="2.2" fill="#C2A86B" opacity="0.87"/><circle cx="859" cy="720" r="2.7" fill="#D0B677" opacity="0.80"/><circle cx="1408" cy="609" r="0.9" fill="#C2A86B" opacity="0.75"/><circle cx="649" cy="834" r="2.1" fill="#C2A86B" opacity="0.51"/><circle cx="1003" cy="737" r="2.8" fill="#C2A86B" opacity="0.90"/><circle cx="985" cy="620" r="2.4" fill="#B99E5E" opacity="0.90"/><circle cx="618" cy="828" r="2.3" fill="#D0B677" opacity="0.75"/><circle cx="130" cy="146" r="1.4" fill="#D6C08A" opacity="0.80"/><circle cx="8" cy="163" r="1.0" fill="#D0B677" opacity="0.66"/><circle cx="1201" cy="638" r="2.8" fill="#B99E5E" opacity="0.83"/><circle cx="1150" cy="730" r="1.8" fill="#D6C08A" opacity="0.58"/><circle cx="729" cy="107" r="1.6" fill="#C2A86B" opacity="0.59"/><circle cx="861" cy="790" r="1.5" fill="#D0B677" opacity="0.73"/><circle cx="618" cy="711" r="2.6" fill="#C2A86B" opacity="0.81"/><circle cx="990" cy="622" r="1.4" fill="#B99E5E" opacity="0.57"/><circle cx="472" cy="88" r="0.9" fill="#D6C08A" opacity="0.62"/><circle cx="1152" cy="687" r="2.7" fill="#D0B677" opacity="0.72"/><circle cx="1003" cy="619" r="2.2" fill="#D6C08A" opacity="0.84"/><circle cx="839" cy="844" r="2.0" fill="#D6C08A" opacity="0.79"/><circle cx="901" cy="723" r="1.6" fill="#D6C08A" opacity="0.67"/><circle cx="268" cy="240" r="2.0" fill="#B99E5E" opacity="0.57"/><circle cx="1250" cy="760" r="1.1" fill="#B99E5E" opacity="0.51"/><circle cx="1110" cy="730" r="1.0" fill="#C2A86B" opacity="0.69"/><circle cx="892" cy="786" r="1.6" fill="#D0B677" opacity="0.60"/><circle cx="793" cy="126" r="1.0" fill="#C2A86B" opacity="0.87"/><circle cx="1093" cy="721" r="2.0" fill="#B99E5E" opacity="0.90"/><circle cx="1102" cy="618" r="2.2" fill="#D6C08A" opacity="0.61"/><circle cx="275" cy="148" r="1.2" fill="#D0B677" opacity="0.71"/><circle cx="535" cy="139" r="1.6" fill="#B99E5E" opacity="0.51"/><circle cx="662" cy="801" r="1.8" fill="#B99E5E" opacity="0.60"/><circle cx="56" cy="208" r="1.0" fill="#B99E5E" opacity="0.72"/><circle cx="787" cy="218" r="1.6" fill="#C2A86B" opacity="0.53"/><circle cx="701" cy="219" r="1.8" fill="#D0B677" opacity="0.70"/><circle cx="103" cy="40" r="1.3" fill="#D0B677" opacity="0.57"/><circle cx="789" cy="217" r="1.9" fill="#B99E5E" opacity="0.83"/><circle cx="390" cy="189" r="1.0" fill="#C2A86B" opacity="0.75"/><circle cx="645" cy="206" r="2.7" fill="#D0B677" opacity="0.81"/><circle cx="1188" cy="743" r="1.2" fill="#C2A86B" opacity="0.81"/><circle cx="1169" cy="634" r="1.7" fill="#B99E5E" opacity="0.57"/><circle cx="1139" cy="607" r="2.2" fill="#B99E5E" opacity="0.88"/><circle cx="1139" cy="712" r="2.4" fill="#C2A86B" opacity="0.78"/><circle cx="502" cy="178" r="2.7" fill="#C2A86B" opacity="0.56"/><circle cx="548" cy="121" r="1.6" fill="#D6C08A" opacity="0.85"/><circle cx="1297" cy="591" r="1.9" fill="#D0B677" opacity="0.61"/><circle cx="807" cy="812" r="1.2" fill="#D6C08A" opacity="0.78"/><circle cx="252" cy="152" r="2.0" fill="#D0B677" opacity="0.58"/><circle cx="403" cy="117" r="1.5" fill="#D0B677" opacity="0.71"/><circle cx="1398" cy="745" r="1.1" fill="#D6C08A" opacity="0.82"/><circle cx="636" cy="744" r="1.7" fill="#D6C08A" opacity="0.64"/><circle cx="461" cy="79" r="2.1" fill="#D0B677" opacity="0.59"/><circle cx="1118" cy="701" r="2.7" fill="#D0B677" opacity="0.74"/><circle cx="695" cy="813" r="1.2" fill="#D6C08A" opacity="0.69"/><circle cx="1249" cy="620" r="1.8" fill="#D0B677" opacity="0.69"/><circle cx="827" cy="778" r="2.0" fill="#D0B677" opacity="0.75"/><circle cx="242" cy="242" r="2.6" fill="#D0B677" opacity="0.58"/><circle cx="1145" cy="674" r="2.6" fill="#B99E5E" opacity="0.83"/><circle cx="486" cy="195" r="2.7" fill="#D0B677" opacity="0.88"/><circle cx="49" cy="160" r="1.3" fill="#D6C08A" opacity="0.81"/><circle cx="901" cy="745" r="1.0" fill="#C2A86B" opacity="0.81"/><circle cx="90" cy="237" r="2.8" fill="#D6C08A" opacity="0.71"/><circle cx="86" cy="88" r="1.6" fill="#B99E5E" opacity="0.64"/><circle cx="1017" cy="594" r="1.8" fill="#D6C08A" opacity="0.73"/><circle cx="417" cy="236" r="1.3" fill="#D0B677" opacity="0.87"/><circle cx="1291" cy="774" r="1.5" fill="#D0B677" opacity="0.63"/><circle cx="1299" cy="696" r="1.8" fill="#D0B677" opacity="0.51"/><circle cx="163" cy="246" r="1.0" fill="#D0B677" opacity="0.78"/><circle cx="1249" cy="794" r="0.9" fill="#B99E5E" opacity="0.64"/><circle cx="1241" cy="801" r="2.6" fill="#B99E5E" opacity="0.66"/><circle cx="680" cy="204" r="2.7" fill="#C2A86B" opacity="0.54"/><circle cx="606" cy="721" r="1.3" fill="#B99E5E" opacity="0.66"/><circle cx="1398" cy="779" r="1.0" fill="#D6C08A" opacity="0.72"/><circle cx="640" cy="801" r="2.6" fill="#B99E5E" opacity="0.58"/><circle cx="1149" cy="765" r="1.2" fill="#C2A86B" opacity="0.76"/><circle cx="452" cy="228" r="1.8" fill="#C2A86B" opacity="0.55"/><circle cx="1191" cy="644" r="2.7" fill="#C2A86B" opacity="0.60"/><circle cx="916" cy="825" r="1.1" fill="#D6C08A" opacity="0.50"/></g><g><circle cx="463" cy="358" r="0.9" fill="#D6C08A" opacity="0.59"/><circle cx="1161" cy="413" r="1.2" fill="#D6C08A" opacity="0.68"/><circle cx="1264" cy="275" r="0.7" fill="#D6C08A" opacity="0.85"/><circle cx="1119" cy="214" r="1.3" fill="#C2A86B" opacity="0.57"/><circle cx="401" cy="729" r="0.7" fill="#C2A86B" opacity="0.57"/><circle cx="143" cy="110" r="0.8" fill="#B99E5E" opacity="0.82"/><circle cx="1111" cy="189" r="1.1" fill="#C2A86B" opacity="0.67"/><circle cx="294" cy="420" r="1.7" fill="#B99E5E" opacity="0.57"/><circle cx="943" cy="296" r="0.7" fill="#D6C08A" opacity="0.77"/><circle cx="741" cy="303" r="1.4" fill="#D0B677" opacity="0.54"/><circle cx="1063" cy="149" r="0.9" fill="#C2A86B" opacity="0.82"/><circle cx="302" cy="187" r="1.2" fill="#C2A86B" opacity="0.74"/><circle cx="132" cy="244" r="1.6" fill="#C2A86B" opacity="0.77"/><circle cx="970" cy="413" r="1.0" fill="#B99E5E" opacity="0.71"/><circle cx="803" cy="649" r="1.2" fill="#B99E5E" opacity="0.87"/><circle cx="1071" cy="684" r="1.4" fill="#C2A86B" opacity="0.85"/><circle cx="1236" cy="564" r="0.9" fill="#D6C08A" opacity="0.85"/><circle cx="753" cy="385" r="1.4" fill="#C2A86B" opacity="0.61"/><circle cx="960" cy="753" r="1.4" fill="#C2A86B" opacity="0.74"/><circle cx="526" cy="809" r="1.4" fill="#D0B677" opacity="0.64"/><circle cx="1359" cy="325" r="1.4" fill="#D6C08A" opacity="0.77"/><circle cx="331" cy="456" r="0.8" fill="#D0B677" opacity="0.78"/><circle cx="686" cy="568" r="1.2" fill="#D6C08A" opacity="0.59"/><circle cx="1072" cy="467" r="1.0" fill="#B99E5E" opacity="0.51"/><circle cx="1075" cy="547" r="1.0" fill="#C2A86B" opacity="0.56"/><circle cx="772" cy="206" r="1.6" fill="#C2A86B" opacity="0.69"/><circle cx="447" cy="455" r="1.7" fill="#D0B677" opacity="0.90"/><circle cx="657" cy="739" r="1.4" fill="#D6C08A" opacity="0.64"/><circle cx="986" cy="70" r="1.7" fill="#D6C08A" opacity="0.80"/><circle cx="1275" cy="217" r="1.0" fill="#D0B677" opacity="0.82"/><circle cx="326" cy="705" r="1.2" fill="#B99E5E" opacity="0.87"/><circle cx="267" cy="522" r="0.8" fill="#D6C08A" opacity="0.71"/><circle cx="313" cy="392" r="1.0" fill="#C2A86B" opacity="0.53"/><circle cx="1180" cy="678" r="0.9" fill="#C2A86B" opacity="0.53"/><circle cx="738" cy="429" r="1.6" fill="#B99E5E" opacity="0.73"/><circle cx="1045" cy="409" r="1.5" fill="#D6C08A" opacity="0.66"/><circle cx="374" cy="349" r="1.1" fill="#C2A86B" opacity="0.75"/><circle cx="319" cy="466" r="1.3" fill="#D0B677" opacity="0.77"/><circle cx="764" cy="590" r="1.7" fill="#D0B677" opacity="0.74"/><circle cx="692" cy="200" r="0.8" fill="#D0B677" opacity="0.57"/><circle cx="458" cy="570" r="1.7" fill="#B99E5E" opacity="0.78"/><circle cx="65" cy="208" r="1.3" fill="#D6C08A" opacity="0.50"/><circle cx="771" cy="206" r="1.1" fill="#D6C08A" opacity="0.69"/><circle cx="537" cy="680" r="1.7" fill="#D6C08A" opacity="0.87"/><circle cx="123" cy="841" r="1.3" fill="#C2A86B" opacity="0.71"/><circle cx="721" cy="282" r="0.7" fill="#C2A86B" opacity="0.69"/><circle cx="1225" cy="787" r="1.1" fill="#C2A86B" opacity="0.58"/><circle cx="820" cy="505" r="1.3" fill="#D0B677" opacity="0.51"/><circle cx="718" cy="173" r="0.9" fill="#D0B677" opacity="0.63"/><circle cx="720" cy="411" r="1.5" fill="#D6C08A" opacity="0.52"/><circle cx="569" cy="702" r="1.0" fill="#D6C08A" opacity="0.76"/><circle cx="380" cy="328" r="1.6" fill="#D0B677" opacity="0.68"/><circle cx="155" cy="450" r="1.4" fill="#C2A86B" opacity="0.77"/><circle cx="924" cy="152" r="0.7" fill="#D6C08A" opacity="0.67"/><circle cx="499" cy="398" r="1.6" fill="#D0B677" opacity="0.79"/><circle cx="1238" cy="664" r="0.8" fill="#D6C08A" opacity="0.75"/><circle cx="1087" cy="698" r="1.3" fill="#D0B677" opacity="0.51"/><circle cx="1262" cy="169" r="0.8" fill="#C2A86B" opacity="0.61"/><circle cx="880" cy="400" r="0.8" fill="#C2A86B" opacity="0.86"/><circle cx="332" cy="644" r="1.6" fill="#B99E5E" opacity="0.77"/></g><g><path d="M490,847 l4.4,-1.7 l3.5,4.4 l-5.2,2.2 Z" fill="#C8AE6E" opacity="0.71"/><path d="M1372,794 l7.2,-2.9 l5.8,7.2 l-8.7,3.6 Z" fill="#C8AE6E" opacity="0.61"/><path d="M416,240 l7.0,-2.8 l5.6,7.0 l-8.4,3.5 Z" fill="#C8AE6E" opacity="0.50"/><path d="M113,696 l6.6,-2.7 l5.3,6.6 l-8.0,3.3 Z" fill="#C8AE6E" opacity="0.72"/><path d="M901,203 l5.0,-2.0 l4.0,5.0 l-6.0,2.5 Z" fill="#C8AE6E" opacity="0.63"/><path d="M467,196 l8.8,-3.5 l7.0,8.8 l-10.5,4.4 Z" fill="#C8AE6E" opacity="0.46"/><path d="M580,216 l8.5,-3.4 l6.8,8.5 l-10.2,4.3 Z" fill="#C8AE6E" opacity="0.62"/><path d="M153,197 l4.9,-2.0 l3.9,4.9 l-5.9,2.5 Z" fill="#C8AE6E" opacity="0.66"/><path d="M1318,74 l5.6,-2.2 l4.5,5.6 l-6.7,2.8 Z" fill="#C8AE6E" opacity="0.74"/><path d="M651,179 l7.9,-3.2 l6.3,7.9 l-9.5,3.9 Z" fill="#C8AE6E" opacity="0.52"/><path d="M1170,88 l5.7,-2.3 l4.5,5.7 l-6.8,2.8 Z" fill="#C8AE6E" opacity="0.47"/><path d="M1030,46 l8.6,-3.4 l6.9,8.6 l-10.3,4.3 Z" fill="#C8AE6E" opacity="0.65"/><path d="M301,143 l5.7,-2.3 l4.6,5.7 l-6.9,2.9 Z" fill="#C8AE6E" opacity="0.72"/><path d="M598,657 l5.9,-2.4 l4.7,5.9 l-7.1,3.0 Z" fill="#C8AE6E" opacity="0.68"/><path d="M404,133 l7.7,-3.1 l6.1,7.7 l-9.2,3.8 Z" fill="#C8AE6E" opacity="0.66"/><path d="M788,762 l8.3,-3.3 l6.7,8.3 l-10.0,4.2 Z" fill="#C8AE6E" opacity="0.74"/><path d="M640,839 l5.0,-2.0 l4.0,5.0 l-6.0,2.5 Z" fill="#C8AE6E" opacity="0.50"/><path d="M188,41 l7.8,-3.1 l6.3,7.8 l-9.4,3.9 Z" fill="#C8AE6E" opacity="0.71"/><path d="M1188,709 l7.0,-2.8 l5.6,7.0 l-8.4,3.5 Z" fill="#C8AE6E" opacity="0.52"/><path d="M96,134 l4.2,-1.7 l3.3,4.2 l-5.0,2.1 Z" fill="#C8AE6E" opacity="0.47"/><path d="M709,686 l7.5,-3.0 l6.0,7.5 l-9.0,3.8 Z" fill="#C8AE6E" opacity="0.55"/><path d="M1148,55 l8.4,-3.4 l6.7,8.4 l-10.1,4.2 Z" fill="#C8AE6E" opacity="0.51"/><path d="M314,162 l7.6,-3.0 l6.1,7.6 l-9.1,3.8 Z" fill="#C8AE6E" opacity="0.55"/><path d="M451,204 l5.8,-2.3 l4.7,5.8 l-7.0,2.9 Z" fill="#C8AE6E" opacity="0.53"/><path d="M146,778 l8.6,-3.4 l6.9,8.6 l-10.3,4.3 Z" fill="#C8AE6E" opacity="0.72"/><path d="M885,98 l6.9,-2.7 l5.5,6.9 l-8.2,3.4 Z" fill="#C8AE6E" opacity="0.64"/><path d="M503,30 l8.2,-3.3 l6.5,8.2 l-9.8,4.1 Z" fill="#C8AE6E" opacity="0.49"/><path d="M1159,698 l4.9,-2.0 l3.9,4.9 l-5.9,2.5 Z" fill="#C8AE6E" opacity="0.59"/><path d="M483,860 l4.9,-2.0 l4.0,4.9 l-5.9,2.5 Z" fill="#C8AE6E" opacity="0.59"/><path d="M216,55 l6.5,-2.6 l5.2,6.5 l-7.8,3.2 Z" fill="#C8AE6E" opacity="0.73"/><path d="M283,219 l4.1,-1.6 l3.3,4.1 l-4.9,2.0 Z" fill="#C8AE6E" opacity="0.73"/><path d="M114,236 l6.1,-2.5 l4.9,6.1 l-7.4,3.1 Z" fill="#C8AE6E" opacity="0.70"/><path d="M846,168 l6.2,-2.5 l5.0,6.2 l-7.4,3.1 Z" fill="#C8AE6E" opacity="0.49"/><path d="M657,788 l4.0,-1.6 l3.2,4.0 l-4.8,2.0 Z" fill="#C8AE6E" opacity="0.53"/><path d="M1378,649 l6.9,-2.7 l5.5,6.9 l-8.2,3.4 Z" fill="#C8AE6E" opacity="0.55"/><path d="M973,700 l8.4,-3.3 l6.7,8.4 l-10.0,4.2 Z" fill="#C8AE6E" opacity="0.49"/><path d="M397,34 l5.8,-2.3 l4.6,5.8 l-7.0,2.9 Z" fill="#C8AE6E" opacity="0.63"/><path d="M1377,124 l6.3,-2.5 l5.0,6.3 l-7.5,3.1 Z" fill="#C8AE6E" opacity="0.48"/><path d="M578,809 l6.0,-2.4 l4.8,6.0 l-7.2,3.0 Z" fill="#C8AE6E" opacity="0.75"/><path d="M521,98 l6.9,-2.7 l5.5,6.9 l-8.2,3.4 Z" fill="#C8AE6E" opacity="0.57"/></g></svg>