<svg xmlns="http://www.w3.org/2000/svg" width="1440" height="900" viewBox="0 0 1440 900"><defs><linearGradient id="sk" x1="0" y1="0" x2="0" y2="1"><stop offset="0" stop-color="#F5F9F8"/><stop offset=".55" stop-color="#EFF4F3"/><stop offset="1" stop-color="#E8EEEC"/></linearGradient><pattern id="wv" width="7" height="7" patternUnits="userSpaceOnUse"><path d="M0 .5H7M0 4H7" stroke="#D2DEDA" stroke-width=".5" opacity=".45"/><path d="M.5 0V7M4 0V7" stroke="#D8E3E0" stroke-width=".45" opacity=".38"/></pattern><path id="pt" d="M0,0 C-58,-52 -51,-117 0,-162 C51,-117 58,-52 0,0 Z"/><path id="pi" d="M0,0 C-36,-36 -32,-81 0,-112 C32,-81 36,-36 0,0 Z"/><path id="ps" d="M0,0 C-38,-31 -33,-69 0,-96 C33,-69 38,-31 0,0 Z"/><filter id="b8" x="-45%" y="-45%" width="190%" height="190%"><feGaussianBlur stdDeviation="8"/></filter><filter id="b22" x="-45%" y="-45%" width="190%" height="190%"><feGaussianBlur stdDeviation="22"/></filter><filter id="b4" x="-45%" y="-45%" width="190%" height="190%"><feGaussianBlur stdDeviation="4"/></filter></defs><rect width="1440" height="900" fill="url(#sk)"/><rect width="1440" height="900" fill="url(#wv)" opacity=".85"/><path d="M0 800Q360 782 720 796T1440 786" fill="none" stroke="#BFCFD0" stroke-width="1.4" opacity=".32"/><g transform="translate(320,640) rotate(16)" opacity=".17" filter="url(#b8)"><use href="#ps" fill="#C8D6D2"/></g><g transform="translate(256,722) rotate(-30) scale(.66)" opacity=".13" filter="url(#b8)"><use href="#ps" fill="#CFDDD8"/></g><path d="M1196 900C1182 706 1124 540 1050 404" fill="none" stroke="#9CB6AC" stroke-width="4" stroke-linecap="round" opacity=".5"/><path d="M1290 900C1292 748 1296 630 1302 548" fill="none" stroke="#9CB6AC" stroke-width="3.2" stroke-linecap="round" opacity=".46"/><g transform="translate(1050,404) rotate(-8) scale(1.12)"><ellipse cx="0" cy="-80" rx="106" ry="94" fill="#C6D6D2" opacity=".26" filter="url(#b22)"/><use href="#pt" transform="rotate(-78)" fill="#D6C9C4" opacity=".56"/><use href="#pt" transform="rotate(-58)" fill="#C6D6D2" opacity=".6"/><use href="#pt" transform="rotate(60)" fill="#D4CAC5" opacity=".56"/><use href="#pt" transform="rotate(78)" fill="#D0C8C3" opacity=".52"/><use href="#pi" transform="rotate(-36) translate(0,-16)" fill="#CCC1BC" opacity=".62"/><use href="#pi" transform="rotate(-14) translate(0,-16)" fill="#BED0CC" opacity=".66"/><use href="#pi" transform="rotate(9) translate(0,-16)" fill="#D3C9C4" opacity=".62"/><use href="#pi" transform="rotate(32) translate(0,-16)" fill="#C6D6D2" opacity=".6"/><use href="#pt" transform="rotate(-70)" fill="none" stroke="#A9C1BA" stroke-width=".9" opacity=".18"/><use href="#pt" transform="rotate(-48)" fill="none" stroke="#A9C1BA" stroke-width=".9" opacity=".18"/><use href="#pt" transform="rotate(-26)" fill="none" stroke="#A9C1BA" stroke-width=".9" opacity=".18"/><use href="#pt" transform="rotate(-4)" fill="none" stroke="#A9C1BA" stroke-width=".9" opacity=".18"/><use href="#pt" transform="rotate(18)" fill="none" stroke="#A9C1BA" stroke-width=".9" opacity=".18"/><use href="#pt" transform="rotate(40)" fill="none" stroke="#A9C1BA" stroke-width=".9" opacity=".18"/><use href="#pt" transform="rotate(62)" fill="none" stroke="#A9C1BA" stroke-width=".9" opacity=".18"/><ellipse cx="0" cy="-46" rx="27" ry="17" fill="#B4C8C0" opacity=".54"/><circle cx="-14" cy="-49" r="2.9" fill="#87A097" opacity=".55"/><circle cx="0" cy="-53" r="2.9" fill="#87A097" opacity=".55"/><circle cx="14" cy="-49" r="2.9" fill="#87A097" opacity=".55"/><circle cx="-7" cy="-41" r="2.9" fill="#87A097" opacity=".55"/><circle cx="7" cy="-41" r="2.9" fill="#87A097" opacity=".55"/></g><g transform="translate(1302,538) rotate(12)"><use href="#ps" transform="rotate(-52) scale(.9)" fill="#D6C9C4" opacity=".5"/><use href="#ps" transform="rotate(-26) scale(.95)" fill="#C8D6D2" opacity=".56"/><use href="#ps" transform="rotate(0) scale(1)" fill="#D3C9C4" opacity=".6"/><use href="#ps" transform="rotate(26) scale(.95)" fill="#C6D6D2" opacity=".56"/><use href="#ps" transform="rotate(52) scale(.9)" fill="#D6C9C4" opacity=".5"/><ellipse cx="0" cy="0" rx="28" ry="20" fill="#B0C5BC" opacity=".55"/><ellipse cx="0" cy="0" rx="28" ry="20" fill="none" stroke="#8DA79D" stroke-width="1.3" opacity=".5"/><circle cx="-14" cy="-3" r="2.7" fill="#7B948A" opacity=".55"/><circle cx="0" cy="-7" r="2.7" fill="#7B948A" opacity=".55"/><circle cx="14" cy="-3" r="2.7" fill="#7B948A" opacity=".55"/><circle cx="-7" cy="5" r="2.7" fill="#7B948A" opacity=".55"/><circle cx="7" cy="5" r="2.7" fill="#7B948A" opacity=".55"/></g><circle cx="986" cy="344" r="3.6" fill="#CDBBAE" opacity=".4"/><circle cx="1122" cy="328" r="3" fill="#CDBBAE" opacity=".4"/><circle cx="1064" cy="276" r="2.4" fill="#CDBBAE" opacity=".4"/></svg>